<svg width="800" height="800" viewBox="0 0 800 800" fill="none" xmlns="http://www.w3.org/2000/svg">
<path fill-rule="evenodd" clip-rule="evenodd" d="M149.675 428.75C150.675 449.4 171.3 439.85 180.65 433.4C189.525 427.275 192.125 432.375 192.9 420.275C193.705 412.343 194.03 404.371 193.875 396.4C180.102 395.018 166.285 398.561 154.875 406.4C149.2 410.525 138.6 423.65 149.675 428.9" fill="white"/>
<path d="M160.4 443.3C158.361 443.337 156.341 442.901 154.5 442.025C152.396 440.808 150.659 439.047 149.471 436.926C148.283 434.806 147.689 432.405 147.75 429.975C146.386 429.315 145.211 428.32 144.337 427.083C143.462 425.845 142.916 424.406 142.75 422.9C143.123 419.268 144.282 415.761 146.147 412.622C148.012 409.484 150.539 406.789 153.55 404.725C165.329 396.581 179.632 392.919 193.875 394.4L195.575 394.55V396.25C195.794 402.481 195.602 408.719 195 414.925C194.85 416.75 194.725 418.55 194.6 420.375C194.05 428.95 192.45 430.25 188.025 431.775C185.701 432.517 183.501 433.604 181.5 435C175.297 439.534 168.03 442.393 160.4 443.3ZM188.15 398.1C176.668 397.946 165.426 401.391 156 407.95C151.95 410.9 146.325 417.8 146.8 422.55C146.942 423.556 147.361 424.502 148.01 425.284C148.659 426.065 149.512 426.651 150.475 426.975L151.55 427.475V428.65C151.8 433.8 153.35 437.1 156.175 438.5C161.625 441.2 171.775 437.05 179.45 431.775C181.752 430.175 184.28 428.928 186.95 428.075C189.85 427.075 190.45 426.85 190.875 420.125C190.875 418.3 191.125 416.475 191.275 414.625C191.785 409.157 192.002 403.666 191.925 398.175C190.642 398.125 189.367 398.1 188.15 398.1Z" fill="black"/>
<path fill-rule="evenodd" clip-rule="evenodd" d="M149.675 428.75C152.814 428.056 155.676 426.446 157.9 424.125Z" fill="#C6B198"/>
<path d="M149.675 430.725C149.225 430.707 148.794 430.536 148.454 430.24C148.114 429.944 147.886 429.54 147.807 429.097C147.728 428.653 147.803 428.195 148.02 427.8C148.237 427.405 148.583 427.096 149 426.925L150.325 426.45C152.636 425.922 154.735 424.711 156.35 422.975C156.492 422.738 156.682 422.534 156.908 422.375C157.134 422.216 157.391 422.106 157.661 422.053C157.932 422 158.211 422.003 158.481 422.065C158.75 422.126 159.003 422.243 159.225 422.408C159.446 422.573 159.63 422.782 159.765 423.023C159.901 423.264 159.984 423.53 160.01 423.805C160.036 424.08 160.004 424.357 159.916 424.619C159.828 424.881 159.686 425.121 159.5 425.325C157.438 427.698 154.698 429.382 151.65 430.15L150.375 430.6C150.151 430.684 149.914 430.726 149.675 430.725Z" fill="black"/>
<path fill-rule="evenodd" clip-rule="evenodd" d="M197.35 182.725C118.275 160.5 177.075 59.9996 240.55 101.3L197.35 182.725Z" fill="white"/>
<path d="M198.35 184.999L196.825 184.574C187.308 182.956 178.497 178.515 171.534 171.829C164.571 165.142 159.777 156.518 157.775 147.074C156.836 137.371 158.625 127.599 162.94 118.858C167.255 110.117 173.926 102.754 182.2 97.5994C191.17 91.9375 201.635 89.1032 212.236 89.4643C222.838 89.8254 233.086 93.3653 241.65 99.6244L243.15 100.599L198.35 184.999ZM209.575 93.3494C200.609 93.352 191.838 95.9574 184.325 100.849C176.679 105.584 170.506 112.358 166.5 120.409C162.494 128.461 160.814 137.47 161.65 146.424C163.446 154.875 167.697 162.607 173.87 168.651C180.043 174.695 187.863 178.782 196.35 180.399L237.975 101.974C229.489 96.5329 219.654 93.5635 209.575 93.3994V93.3494Z" fill="black"/>
<path fill-rule="evenodd" clip-rule="evenodd" d="M548.6 93.7491C611.1 49.7991 667.725 148.974 595 173.924L548.6 93.7491Z" fill="white"/>
<path d="M594.125 176.301L546 93.1759L547.475 92.1509C555.479 85.7424 565.21 81.8613 575.428 81.002C585.646 80.1428 595.888 82.3442 604.85 87.3259C613.322 92.2957 620.247 99.5196 624.855 108.193C629.464 116.867 631.573 126.649 630.95 136.451C629.681 145.791 625.635 154.535 619.336 161.547C613.037 168.559 604.776 173.516 595.625 175.776L594.125 176.301ZM551.225 94.3259L595.9 171.501C603.995 169.296 611.264 164.76 616.802 158.457C622.341 152.154 625.904 144.363 627.05 136.051C627.612 126.995 625.649 117.961 621.381 109.954C617.113 101.948 610.706 95.2826 602.875 90.7009C594.879 86.1072 585.697 83.9987 576.498 84.6443C567.299 85.2899 558.501 88.6604 551.225 94.3259Z" fill="black"/>
<path fill-rule="evenodd" clip-rule="evenodd" d="M562.075 682.926C577.975 692.751 607.075 722.501 583.175 736.926C560.275 757.901 547.45 713.901 527.325 707.801C531.192 701.568 536.252 696.162 542.216 691.893C548.18 687.624 554.929 684.576 562.075 682.926Z" fill="white"/>
<path d="M571.1 744.525H570.15C561.125 743.975 553.625 735.175 546.375 726.65C541.398 719.414 534.639 713.584 526.75 709.725L524.1 708.925L525.75 706.675C533.905 693.709 546.853 684.49 561.775 681.025H562.5L563.125 681.4C573.3 687.7 594.3 706.1 594.2 722.75C594.147 726.04 593.207 729.255 591.477 732.054C589.747 734.853 587.293 737.132 584.375 738.65C580.854 742.221 576.109 744.321 571.1 744.525ZM530.475 707.025C537.887 711.391 544.321 717.238 549.375 724.2C556.4 732.45 563.05 740.25 570.4 740.7C572.545 740.695 574.666 740.248 576.632 739.388C578.597 738.527 580.365 737.272 581.825 735.7L582.125 735.475C584.505 734.312 586.519 732.517 587.947 730.286C589.376 728.055 590.164 725.474 590.225 722.825C590.225 709.525 573.425 692.825 561.625 685.325C548.872 688.285 537.73 696.002 530.475 706.9V707.025Z" fill="black"/>
<path d="M583.175 738.899C582.813 738.898 582.458 738.797 582.149 738.607C581.841 738.418 581.59 738.147 581.425 737.824C580.262 735.383 579.235 732.879 578.35 730.324C576.986 725.519 574.541 721.089 571.2 717.374C570.891 717 570.73 716.525 570.749 716.04C570.767 715.555 570.964 715.094 571.301 714.744C571.638 714.395 572.091 714.182 572.576 714.146C573.06 714.11 573.54 714.254 573.925 714.549C577.712 718.665 580.493 723.603 582.05 728.974C582.89 731.358 583.858 733.695 584.95 735.974C585.185 736.442 585.225 736.984 585.061 737.48C584.897 737.977 584.542 738.389 584.075 738.624C583.802 738.788 583.493 738.883 583.175 738.899Z" fill="black"/>
<path fill-rule="evenodd" clip-rule="evenodd" d="M278.1 716.549C259.45 719.424 248.95 736.274 233.4 744.824C218.75 753.574 213.125 742.024 211.825 739.674C209.525 738.624 209.725 740.649 206.175 737.174C192.5 715.624 220.3 699.999 234.75 689.299C254.875 685.224 267.5 702.674 278.1 716.549Z" fill="white"/>
<path d="M223.475 750.001C222.285 750.008 221.1 749.857 219.95 749.551C217.896 748.88 215.997 747.804 214.365 746.388C212.734 744.971 211.402 743.241 210.45 741.301H210C208.35 741.301 207.125 740.951 204.675 738.476L204.4 738.151C191.325 717.501 213.575 701.826 228.325 691.451C230.175 690.151 231.925 688.951 233.5 687.751L233.85 687.501H234.275C255 683.301 268.1 700.451 278.6 714.226L281.575 718.101L278.3 718.601C267.764 721.13 258.176 726.631 250.675 734.451C245.629 739.065 240.126 743.153 234.25 746.651C231.021 748.708 227.301 749.865 223.475 750.001ZM210.3 737.351C211.097 737.352 211.882 737.531 212.6 737.876L213.175 738.151L213.675 739.026C214.379 740.579 215.389 741.974 216.643 743.13C217.897 744.285 219.37 745.176 220.975 745.751C222.946 746.117 224.97 746.085 226.928 745.655C228.886 745.226 230.739 744.408 232.375 743.251C238.034 739.87 243.336 735.925 248.2 731.476C255.595 724.086 264.645 718.567 274.6 715.376C264.6 702.226 253.05 688.026 235.55 691.301C234.025 692.401 232.375 693.576 230.55 694.776C215.55 705.376 196.75 718.576 207.575 735.976C209.125 737.526 209.5 737.501 209.825 737.501L210.3 737.351Z" fill="black"/>
<path d="M211.8 741.625H211.625C211.105 741.58 210.624 741.332 210.286 740.933C209.949 740.535 209.783 740.02 209.825 739.5C210.632 734.258 212.814 729.323 216.15 725.2C217.722 723.024 219.102 720.715 220.275 718.3C220.51 717.86 220.903 717.525 221.375 717.363C221.847 717.201 222.363 717.223 222.818 717.426C223.274 717.629 223.637 717.996 223.833 718.455C224.029 718.914 224.044 719.43 223.875 719.9C222.613 722.525 221.124 725.035 219.425 727.4C216.482 731.001 214.534 735.311 213.775 739.9C213.713 740.379 213.479 740.819 213.115 741.137C212.751 741.455 212.283 741.629 211.8 741.625Z" fill="black"/>
<path fill-rule="evenodd" clip-rule="evenodd" d="M200.65 154.999C190.225 149.474 182.575 141.999 188.95 129.999C194.85 118.824 205.825 119.999 216.25 125.549L200.65 154.999Z" fill="black"/>
<path fill-rule="evenodd" clip-rule="evenodd" d="M578.525 144.451C588.95 138.926 596.6 131.451 590.225 119.451C584.325 108.276 573.35 109.451 562.925 115.001L578.525 144.451Z" fill="black"/>
<path fill-rule="evenodd" clip-rule="evenodd" d="M650.325 426.15C649.325 446.8 628.7 437.25 619.35 430.8C610.475 424.675 607.875 429.775 607.1 417.675C606.296 409.744 605.97 401.771 606.125 393.8C619.899 392.419 633.716 395.962 645.125 403.8C650.8 407.925 661.4 421.05 650.325 426.3" fill="white"/>
<path d="M639.6 440.675C631.886 439.817 624.528 436.965 618.25 432.4C616.249 431.005 614.049 429.918 611.725 429.175C607.3 427.625 605.7 426.325 605.15 417.775C605.15 415.95 604.9 414.15 604.75 412.325C604.149 406.12 603.956 399.881 604.175 393.65V391.95L605.875 391.8C620.118 390.32 634.421 393.982 646.2 402.125C649.212 404.189 651.738 406.884 653.603 410.023C655.468 413.161 656.627 416.668 657 420.3C656.834 421.806 656.288 423.246 655.413 424.483C654.539 425.72 653.364 426.716 652 427.375C652.062 429.805 651.467 432.206 650.279 434.327C649.092 436.447 647.354 438.209 645.25 439.425C643.483 440.255 641.553 440.682 639.6 440.675ZM608.025 395.675C607.948 401.166 608.165 406.657 608.675 412.125C608.825 413.95 608.95 415.775 609.075 417.625C609.5 424.35 610.1 424.55 613 425.575C615.67 426.429 618.198 427.676 620.5 429.275C628.15 434.575 638.325 438.7 643.775 436C646.6 434.6 648.15 431.3 648.4 426.15V424.975L649.475 424.475C650.438 424.151 651.292 423.566 651.941 422.784C652.59 422.003 653.009 421.056 653.15 420.05C653.6 415.3 648 408.4 643.95 405.45C633.457 398.149 620.775 394.672 608.025 395.6V395.675Z" fill="black"/>
<path fill-rule="evenodd" clip-rule="evenodd" d="M650.325 426.15C647.186 425.456 644.323 423.847 642.1 421.525Z" fill="#C6B198"/>
<path d="M650.325 428.1C650.101 428.139 649.873 428.139 649.65 428.1L648.375 427.65C645.325 426.883 642.585 425.199 640.525 422.825C640.338 422.621 640.196 422.381 640.108 422.119C640.021 421.857 639.989 421.58 640.015 421.305C640.041 421.03 640.124 420.764 640.259 420.523C640.394 420.282 640.579 420.073 640.8 419.908C641.021 419.743 641.275 419.626 641.544 419.565C641.813 419.504 642.092 419.5 642.363 419.553C642.634 419.606 642.891 419.716 643.117 419.875C643.342 420.034 643.532 420.238 643.675 420.475C645.289 422.211 647.388 423.422 649.7 423.95L651.025 424.425C651.441 424.596 651.787 424.905 652.004 425.3C652.221 425.695 652.297 426.153 652.218 426.597C652.139 427.04 651.911 427.444 651.571 427.74C651.231 428.036 650.8 428.207 650.35 428.225L650.325 428.1Z" fill="black"/>
<path fill-rule="evenodd" clip-rule="evenodd" d="M392.075 51.9746C471.225 51.9746 545.425 63.2996 584.1 139.35C618.825 224.575 606.475 316.5 611.775 406.575C616.325 483.925 626.4 573.275 590.525 644.975C552.775 720.375 458.45 739.35 380.725 736.575C319.675 734.4 245.95 714.475 211.5 658.7C171.075 593.275 190.225 495.975 193.15 423.175C196.625 336.95 169.8 250.425 198.15 166.05C227.55 78.5496 306.8 58.7246 392.1 51.9746" fill="white"/>
<path d="M394.25 738.75C389.25 738.75 384.75 738.75 380.675 738.5C343.175 737.15 251.275 726.775 209.85 659.7C177.175 606.8 183 533.675 188.125 469.15C189.425 452.925 190.625 437.575 191.225 423.075C191.809 392.473 190.498 361.865 187.3 331.425C178.797 276.056 181.861 219.525 196.3 165.4C202.281 146.111 212.218 128.281 225.476 113.048C238.734 97.8143 255.021 85.5116 273.3 76.925C310.785 60.5343 351.037 51.398 391.925 50H392.075C469.35 50 546.325 60.725 585.85 138.45V138.6C606.929 201.007 615.79 266.891 611.95 332.65C612.075 356.875 612.225 381.95 613.65 406.45C614.075 413.95 614.575 421.45 615.075 428.95C619.675 499.975 624.875 580.5 592.2 645.775C551.475 727.3 448.675 738.75 394.25 738.75ZM392.15 53.925C309.8 60.45 229.65 78.625 199.975 166.65C185.73 220.273 182.726 276.261 191.15 331.1C194.336 361.708 195.622 392.483 195 423.25C194.4 437.85 193.2 453.25 191.9 469.5C186.9 533.425 181.05 605.875 213.05 657.675C253.5 723.15 343.75 733.3 380.675 734.6C428.725 736.325 545.15 730.925 588.625 644.075C620.825 579.75 615.65 499.8 611.125 429.275C610.625 421.775 610.15 414.125 609.7 406.775C608.25 382.175 608.125 357.05 608 332.775C611.813 267.55 603.063 202.199 582.225 140.275C543.75 64.4 468.125 53.95 392.15 53.925Z" fill="black"/>
<path fill-rule="evenodd" clip-rule="evenodd" d="M406.05 158.224C420.25 240.724 555.3 218.999 535.9 135.724C518.4 61.0241 401.325 81.699 406.05 158.224Z" fill="white"/>
<path d="M470.2 212.124C461.799 212.155 453.452 210.787 445.5 208.074C434.675 204.494 425.067 197.955 417.764 189.199C410.461 180.442 405.754 169.817 404.175 158.524V158.324C403.18 141.06 408.917 124.083 420.182 110.963C431.446 97.8429 447.36 89.6022 464.575 87.9741C480.537 84.662 497.161 87.7644 510.854 96.6107C524.547 105.457 534.209 119.337 537.75 135.249C540.68 145.611 540.658 156.585 537.685 166.934C534.712 177.284 528.908 186.597 520.925 193.824C506.785 205.855 488.765 212.356 470.2 212.124ZM407.95 157.999C409.451 168.592 413.878 178.556 420.732 186.771C427.587 194.986 436.597 201.125 446.75 204.499C458.848 208.556 471.783 209.444 484.322 207.081C496.861 204.718 508.585 199.181 518.375 190.999C525.863 184.21 531.3 175.459 534.07 165.738C536.841 156.018 536.834 145.716 534.05 135.999C530.67 121.026 521.529 107.988 508.605 99.7058C495.682 91.4239 480.016 88.5654 465 91.7491C448.776 93.2876 433.777 101.043 423.142 113.393C412.508 125.742 407.064 141.726 407.95 157.999Z" fill="black"/>
<path fill-rule="evenodd" clip-rule="evenodd" d="M244.7 171.575C263.1 243.5 378.25 225 373.9 152.95C368.7 66.5497 227.075 83.2247 244.675 171.575" fill="white"/>
<path d="M306.125 219.026C294.415 219.138 282.86 216.337 272.5 210.876C265.105 206.861 258.644 201.325 253.543 194.633C248.441 187.941 244.814 180.245 242.9 172.051C240.058 160.854 240.494 149.076 244.155 138.12C247.816 127.164 254.548 117.49 263.55 110.251C274.412 101.968 287.266 96.6962 300.816 94.9669C314.365 93.2375 328.131 95.1118 340.725 100.401C350.976 104.878 359.725 112.207 365.93 121.514C372.135 130.822 375.535 141.716 375.725 152.901C376.307 169.025 370.702 184.761 360.059 196.887C349.415 209.013 334.539 216.611 318.475 218.126C314.388 218.744 310.259 219.045 306.125 219.026ZM246.5 171.176C250.463 186.25 260.136 199.19 273.472 207.258C286.807 215.326 302.759 217.887 317.95 214.401C333.095 213.006 347.134 205.878 357.195 194.473C367.256 183.069 372.579 168.251 372.075 153.051C371.916 142.533 368.734 132.283 362.909 123.524C357.085 114.764 348.863 107.866 339.225 103.651C327.253 98.6176 314.165 96.8317 301.282 98.4733C288.399 100.115 276.178 105.126 265.85 113.001C257.391 119.825 251.069 128.935 247.639 139.249C244.209 149.562 243.813 160.644 246.5 171.176Z" fill="black"/>
<path fill-rule="evenodd" clip-rule="evenodd" d="M422.35 257.349C423.533 268.721 423.667 280.178 422.75 291.574C420 296.749 414.625 297.299 410 299.399C406.847 298.904 403.873 297.614 401.358 295.649C398.843 293.685 396.869 291.113 395.625 288.174C394.935 275.259 395.278 262.31 396.65 249.449L422.35 257.349Z" fill="white"/>
<path d="M410.275 301.424H409.7C406.206 300.871 402.913 299.431 400.134 297.243C397.355 295.054 395.183 292.191 393.825 288.924V288.674V288.399C392.992 279.556 393.067 270.652 394.05 261.824C394.375 257.749 394.7 253.549 394.825 249.324V246.824L424.35 255.874V257.324C424.35 260.874 424.65 264.549 424.95 268.424C425.868 276.227 425.801 284.114 424.75 291.899V292.199L424.6 292.474C423.462 294.352 421.961 295.982 420.183 297.271C418.406 298.559 416.388 299.478 414.25 299.974C413.075 300.399 411.975 300.774 410.9 301.274L410.275 301.424ZM397.55 287.649C398.647 290.133 400.33 292.313 402.455 294.002C404.58 295.692 407.083 296.84 409.75 297.349C410.775 296.924 411.825 296.549 412.825 296.174C416.079 295.499 418.956 293.613 420.875 290.899C421.768 283.535 421.768 276.089 420.875 268.724C420.625 265.299 420.375 262.024 420.3 258.724L398.425 252.024C398.25 255.424 398 258.799 397.75 262.024C396.798 270.535 396.714 279.121 397.5 287.649H397.55Z" fill="black"/>
<path d="M276.45 180.901C287.192 180.901 295.9 171.476 295.9 159.851C295.9 148.225 287.192 138.801 276.45 138.801C265.708 138.801 257 148.225 257 159.851C257 171.476 265.708 180.901 276.45 180.901Z" fill="black"/>
<path d="M285.3 169.95C287.826 169.95 289.875 167.555 289.875 164.6C289.875 161.645 287.826 159.25 285.3 159.25C282.773 159.25 280.725 161.645 280.725 164.6C280.725 167.555 282.773 169.95 285.3 169.95Z" fill="white"/>
<path d="M439.35 175.651C449.912 175.651 458.475 166.226 458.475 154.601C458.475 142.975 449.912 133.551 439.35 133.551C428.787 133.551 420.225 142.975 420.225 154.601C420.225 166.226 428.787 175.651 439.35 175.651Z" fill="black"/>
<path d="M448.05 164.7C450.535 164.7 452.55 162.305 452.55 159.35C452.55 156.395 450.535 154 448.05 154C445.565 154 443.55 156.395 443.55 159.35C443.55 162.305 445.565 164.7 448.05 164.7Z" fill="white"/>
<path fill-rule="evenodd" clip-rule="evenodd" d="M366.775 256.176C358.3 276.726 371.5 317.851 394.525 287.526C393.836 274.611 394.179 261.661 395.55 248.801L366.775 256.176Z" fill="white"/>
<path d="M379.15 300.325C377.163 300.315 375.214 299.78 373.5 298.775C367.983 293.187 364.233 286.1 362.717 278.395C361.201 270.691 361.987 262.711 364.975 255.45L365.35 254.55L397.5 246.25V248.75C397.375 253 397.025 257.25 396.7 261.25C395.728 269.81 395.645 278.448 396.45 287.025V287.825L395.975 288.475C389.35 297.5 383.625 300.325 379.15 300.325ZM368.25 257.825C365.865 264.13 365.275 270.973 366.546 277.593C367.817 284.213 370.899 290.351 375.45 295.325C381.4 298.725 387.95 292.825 392.475 286.95C391.753 278.368 391.862 269.736 392.8 261.175C393.05 257.95 393.3 254.65 393.475 251.375L368.25 257.825Z" fill="black"/>
<path fill-rule="evenodd" clip-rule="evenodd" d="M369.675 216.575C365.729 216.946 361.928 218.25 358.586 220.379C355.243 222.507 352.454 225.401 350.449 228.819C348.445 232.238 347.281 236.084 347.055 240.041C346.829 243.997 347.547 247.951 349.15 251.575C360.025 271.275 384.325 249.825 399.475 251.85C416.975 252.2 431.175 270.275 445.15 255.125C460.7 238.275 438.45 221.85 421.05 214.525L369.675 216.575Z" fill="white"/>
<path d="M432.7 263.15C427.119 262.711 421.676 261.192 416.675 258.675C411.287 255.997 405.444 254.352 399.45 253.825H399.225C393.091 253.829 387.026 255.124 381.425 257.625C369.15 261.875 355.225 266.675 347.425 252.625C345.535 249.088 344.575 245.128 344.637 241.117C344.698 237.107 345.778 233.178 347.775 229.7C349.88 225.603 352.965 222.09 356.755 219.473C360.545 216.856 364.924 215.217 369.5 214.7L421.425 212.5L421.825 212.675C434.75 218.125 449.475 228.1 452 239.75C452.339 242.563 452.103 245.416 451.305 248.135C450.507 250.853 449.165 253.382 447.36 255.566C445.555 257.75 443.324 259.544 440.804 260.839C438.284 262.134 435.527 262.903 432.7 263.1V263.15ZM399.625 250C406.086 250.53 412.389 252.277 418.2 255.15C428.025 259.275 435.7 262.525 443.725 253.9C445.516 252.25 446.862 250.176 447.639 247.869C448.417 245.562 448.601 243.097 448.175 240.7C446 230.7 432.125 221.475 420.675 216.6L369.775 218.625C365.868 219.117 362.139 220.55 358.908 222.801C355.676 225.053 353.04 228.055 351.225 231.55C349.544 234.453 348.627 237.735 348.561 241.089C348.496 244.443 349.283 247.759 350.85 250.725C357.05 261.95 368.35 258.075 380.1 253.975C386.244 251.252 392.906 249.895 399.625 250Z" fill="#231F20"/>
<path fill-rule="evenodd" clip-rule="evenodd" d="M367.7 215.749C366.525 188.374 418.75 184.999 425 207.874C431.25 230.749 370.35 236.074 367.775 215.774L367.7 215.749Z" fill="black"/>
</svg>
